<svg width="64" height="64" viewBox="0 0 64 64" fill="none" xmlns="http://www.w3.org/2000/svg">
<path d="M51.7755 50.6839C51.6107 50.5179 51.5839 50.2604 51.7027 50.0589C52.7457 48.2893 53.3335 46.2034 53.3335 44C53.3335 37.3333 48.0002 32 41.3335 32C34.6668 32 29.3335 37.3333 29.3335 44C29.3335 50.6667 34.6668 56 41.3335 56C43.5131 56 45.5751 55.4116 47.3425 54.3895C47.5425 54.2738 47.7963 54.3009 47.961 54.463L55.6466 62.0255C55.8423 62.218 56.1567 62.2168 56.3509 62.0226L59.3544 59.0191C59.5492 58.8243 59.5497 58.5086 59.3556 58.3131L51.7755 50.6839ZM41.3335 50.6667C39.5654 50.6667 37.8697 49.9643 36.6195 48.714C35.3692 47.4638 34.6668 45.7681 34.6668 44C34.6668 42.2319 35.3692 40.5362 36.6195 39.286C37.8697 38.0357 39.5654 37.3333 41.3335 37.3333C43.1016 37.3333 44.7973 38.0357 46.0475 39.286C47.2978 40.5362 48.0002 42.2319 48.0002 44C48.0002 45.7681 47.2978 47.4638 46.0475 48.714C44.7973 49.9643 43.1016 50.6667 41.3335 50.6667ZM13.8335 53.3333C13.5574 53.3333 13.3335 53.1095 13.3335 52.8333V32.5C13.3335 32.2239 13.1096 32 12.8335 32H6.63648C6.17823 32 5.96138 31.4349 6.30199 31.1284L31.6657 8.30103C31.8558 8.1299 32.1445 8.1299 32.3346 8.30103L57.6983 31.1284C58.0389 31.4349 57.8221 32 57.3639 32H54.0267C53.8905 32 53.7604 31.9442 53.665 31.847C50.5283 28.6563 46.1634 26.6667 41.3335 26.6667C31.7868 26.6667 24.0002 34.4533 24.0002 44C24.0002 47.1086 24.8277 50.043 26.2662 52.5474C26.4638 52.8914 26.2222 53.3333 25.8255 53.3333H13.8335Z" fill="#4F46E5"/>
</svg>
